
    <svg id="diagramSvg" xmlns="http://www.w3.org/2000/svg" style="width: 900px; height: 700px;">
      <style id="stylesheet">text {
  text-anchor: middle;
  font-size: small;
  font-weight: bold;
}

rect {
  fill: lightblue;
  stroke: black;
  opacity: 0.5;
  stroke-width: 1.5;
}

line {
  stroke: black;
  opacity: 0.5;
  stroke-width: 1.5;
}
  </style>
      <defs>
        <marker id="arrowHead" viewBox="-10 -5 10 10" markerUnits="strokeWidth" markerWidth="6" markerHeight="5" orient="auto">
          <path d="M -10 -5 L 0 0 L -10 5 z"></path>
        </marker>
      </defs>
      <g id="diagramGroup"><rect x="415px" y="0px" width="68px" height="58px"></rect><text x="450px" y="0px"><tspan x="450" dy="34.66666666666667">3</tspan></text><rect x="303px" y="128px" width="68px" height="58px"></rect><text x="337px" y="128px"><tspan x="337" dy="34.66666666666667">1</tspan></text><line x1="438px" y1="58px" x2="337px" y2="128px" marker-end="url(#arrowHead)"></line><rect x="528px" y="128px" width="68px" height="58px"></rect><text x="562px" y="128px"><tspan x="562" dy="34.66666666666667">4</tspan></text><line x1="461px" y1="58px" x2="562px" y2="128px" marker-end="url(#arrowHead)"></line><rect x="265px" y="256px" width="68px" height="58px"></rect><text x="299px" y="256px"><tspan x="299" dy="34.66666666666667">null</tspan></text><line x1="325px" y1="186px" x2="299px" y2="256px" marker-end="url(#arrowHead)"></line><rect x="340px" y="256px" width="68px" height="58px"></rect><text x="375px" y="256px"><tspan x="375" dy="34.66666666666667">2</tspan></text><line x1="348px" y1="186px" x2="375px" y2="256px" marker-end="url(#arrowHead)"></line><rect x="490px" y="256px" width="68px" height="58px"></rect><text x="525px" y="256px"><tspan x="525" dy="34.66666666666667">null</tspan></text><line x1="551px" y1="186px" x2="525px" y2="256px" marker-end="url(#arrowHead)"></line><rect x="566px" y="256px" width="68px" height="58px"></rect><text x="600px" y="256px"><tspan x="600" dy="34.66666666666667">6</tspan></text><line x1="574px" y1="186px" x2="600px" y2="256px" marker-end="url(#arrowHead)"></line><rect x="522px" y="385px" width="68px" height="58px"></rect><text x="556px" y="385px"><tspan x="556" dy="34.66666666666667">5</tspan></text><line x1="589px" y1="315px" x2="556px" y2="385px" marker-end="url(#arrowHead)"></line><rect x="610px" y="385px" width="68px" height="58px"></rect><text x="645px" y="385px"><tspan x="645" dy="34.66666666666667">9</tspan></text><line x1="612px" y1="315px" x2="645px" y2="385px" marker-end="url(#arrowHead)"></line><rect x="566px" y="513px" width="68px" height="58px"></rect><text x="600px" y="513px"><tspan x="600" dy="34.66666666666667">7</tspan></text><line x1="633px" y1="443px" x2="600px" y2="513px" marker-end="url(#arrowHead)"></line><rect x="655px" y="513px" width="68px" height="58px"></rect><text x="689px" y="513px"><tspan x="689" dy="34.66666666666667">null</tspan></text><line x1="656px" y1="443px" x2="689px" y2="513px" marker-end="url(#arrowHead)"></line></g>
    </svg>
  